<svg width="83" height="20" viewBox="0 0 83 20" fill="none" xmlns="http://www.w3.org/2000/svg">
<path d="M10.16 10.408C11.104 10.584 11.88 11.056 12.488 11.824C13.096 12.592 13.4 13.472 13.4 14.464C13.4 15.36 13.176 16.152 12.728 16.84C12.296 17.512 11.664 18.04 10.832 18.424C10 18.808 9.016 19 7.88 19H0.656V2.248H7.568C8.704 2.248 9.68 2.432 10.496 2.8C11.328 3.168 11.952 3.68 12.368 4.336C12.8 4.992 13.016 5.736 13.016 6.568C13.016 7.544 12.752 8.36 12.224 9.016C11.712 9.672 11.024 10.136 10.16 10.408ZM4.016 9.16H7.088C7.888 9.16 8.504 8.984 8.936 8.632C9.368 8.264 9.584 7.744 9.584 7.072C9.584 6.4 9.368 5.88 8.936 5.512C8.504 5.144 7.888 4.96 7.088 4.96H4.016V9.16ZM7.4 16.264C8.216 16.264 8.848 16.072 9.296 15.688C9.76 15.304 9.992 14.76 9.992 14.056C9.992 13.336 9.752 12.776 9.272 12.376C8.792 11.96 8.144 11.752 7.328 11.752H4.016V16.264H7.4ZM28.6299 5.704V19H25.2459V17.32C24.8139 17.896 24.2459 18.352 23.5419 18.688C22.8539 19.008 22.1019 19.168 21.2859 19.168C20.2459 19.168 19.3259 18.952 18.5259 18.52C17.7259 18.072 17.0939 17.424 16.6299 16.576C16.1819 15.712 15.9579 14.688 15.9579 13.504V5.704H19.3179V13.024C19.3179 14.08 19.5819 14.896 20.1099 15.472C20.6379 16.032 21.3579 16.312 22.2699 16.312C23.1979 16.312 23.9259 16.032 24.4539 15.472C24.9819 14.896 25.2459 14.08 25.2459 13.024V5.704H28.6299ZM35.3051 1.24V19H31.9451V1.24H35.3051ZM50.9848 12.064C50.9848 12.544 50.9528 12.976 50.8888 13.36H41.1688C41.2488 14.32 41.5848 15.072 42.1768 15.616C42.7688 16.16 43.4968 16.432 44.3608 16.432C45.6088 16.432 46.4968 15.896 47.0248 14.824H50.6488C50.2648 16.104 49.5288 17.16 48.4408 17.992C47.3528 18.808 46.0168 19.216 44.4328 19.216C43.1528 19.216 42.0008 18.936 40.9768 18.376C39.9688 17.8 39.1768 16.992 38.6008 15.952C38.0408 14.912 37.7607 13.712 37.7607 12.352C37.7607 10.976 38.0408 9.768 38.6008 8.728C39.1608 7.688 39.9448 6.888 40.9528 6.328C41.9608 5.768 43.1208 5.488 44.4328 5.488C45.6968 5.488 46.8248 5.76 47.8168 6.304C48.8248 6.848 49.6008 7.624 50.1448 8.632C50.7048 9.624 50.9848 10.768 50.9848 12.064ZM47.5048 11.104C47.4888 10.24 47.1768 9.552 46.5688 9.04C45.9608 8.512 45.2168 8.248 44.3368 8.248C43.5048 8.248 42.8008 8.504 42.2248 9.016C41.6648 9.512 41.3208 10.208 41.1928 11.104H47.5048ZM57.3493 8.464V14.896C57.3493 15.344 57.4533 15.672 57.6613 15.88C57.8853 16.072 58.2533 16.168 58.7653 16.168H60.3253V19H58.2133C55.3813 19 53.9653 17.624 53.9653 14.872V8.464H52.3813V5.704H53.9653V2.416H57.3493V5.704H60.3253V8.464H57.3493ZM64.4459 4.12C63.8539 4.12 63.3579 3.936 62.9579 3.568C62.5739 3.184 62.3819 2.712 62.3819 2.152C62.3819 1.592 62.5739 1.128 62.9579 0.759999C63.3579 0.375999 63.8539 0.183999 64.4459 0.183999C65.0379 0.183999 65.5259 0.375999 65.9099 0.759999C66.3099 1.128 66.5099 1.592 66.5099 2.152C66.5099 2.712 66.3099 3.184 65.9099 3.568C65.5259 3.936 65.0379 4.12 64.4459 4.12ZM66.1019 5.704V19H62.7419V5.704H66.1019ZM76.7896 5.512C78.3736 5.512 79.6536 6.016 80.6296 7.024C81.6056 8.016 82.0936 9.408 82.0936 11.2V19H78.7336V11.656C78.7336 10.6 78.4696 9.792 77.9416 9.232C77.4136 8.656 76.6936 8.368 75.7816 8.368C74.8536 8.368 74.1176 8.656 73.5736 9.232C73.0456 9.792 72.7816 10.6 72.7816 11.656V19H69.4216V5.704H72.7816V7.36C73.2296 6.784 73.7976 6.336 74.4856 6.016C75.1896 5.68 75.9576 5.512 76.7896 5.512Z" fill="#FF0000"/>
</svg>
