<svg width="32" height="28" viewBox="0 0 32 28" fill="none" xmlns="http://www.w3.org/2000/svg">
<path fill-rule="evenodd" clip-rule="evenodd" d="M32 3.82355C30.8242 4.359 29.5583 4.7211 28.2303 4.88289C29.5864 4.05082 30.627 2.73146 31.1172 1.15977C29.8475 1.9302 28.4445 2.49069 26.9456 2.79116C25.751 1.48335 24.0437 0.666687 22.1541 0.666687C18.531 0.666687 15.5915 3.68101 15.5915 7.39836C15.5915 7.9261 15.6478 8.43845 15.7605 8.93153C10.3042 8.65032 5.46763 5.97305 2.22762 1.89553C1.66226 2.89324 1.33919 4.05082 1.33919 5.28352C1.33919 7.61793 2.4981 9.67885 4.25991 10.8865C3.18554 10.8538 2.17127 10.5475 1.28473 10.0467V10.1295C1.28473 13.3923 3.54804 16.1139 6.55326 16.7302C6.00293 16.8882 5.42255 16.9672 4.82338 16.9672C4.40077 16.9672 3.98755 16.9267 3.58748 16.8477C4.42331 19.5211 6.84627 21.4684 9.72001 21.5204C7.47361 23.3271 4.64119 24.4038 1.56647 24.4038C1.0368 24.4038 0.512766 24.373 0 24.3113C2.90568 26.2181 6.35792 27.3334 10.0637 27.3334C22.141 27.3334 28.7431 17.0769 28.7431 8.18035C28.7431 7.88758 28.7374 7.59482 28.7262 7.30783C30.009 6.35827 31.1229 5.17373 32 3.82355Z" fill="#00AAEC"/>
</svg>
