<svg width="30" height="30" viewBox="0 0 30 30" fill="none" xmlns="http://www.w3.org/2000/svg">
<path d="M29.9959 15.091C29.9949 6.80998 23.2819 0.0969849 14.9999 0.0969849C6.71791 0.0969849 0.00390625 6.81099 0.00390625 15.093C0.00390625 22.548 5.44391 28.732 12.5699 29.893L12.6559 29.905V19.427H8.84791V15.091H12.6559V11.789C12.6369 11.622 12.6269 11.428 12.6269 11.232C12.6269 8.30898 14.9969 5.93898 17.9199 5.93898C18.0609 5.93898 18.2009 5.94498 18.3399 5.95498L18.3219 5.95398C19.5209 5.97098 20.6809 6.07698 21.8129 6.26598L21.6789 6.24698V9.93699H19.7869C19.7009 9.92498 19.6019 9.91798 19.5019 9.91798C18.3049 9.91798 17.3339 10.888 17.3339 12.086C17.3339 12.154 17.3369 12.221 17.3429 12.288L17.3419 12.279V15.091H21.5009L20.8359 19.427H17.3419V29.905C24.5549 28.731 29.9949 22.546 29.9959 15.091Z" fill="#0300FF"/>
</svg>
