<svg width="18" height="17" viewBox="0 0 18 17" fill="none" xmlns="http://www.w3.org/2000/svg">
<path d="M2.51999 11.5C3.67393 12.6556 5.21063 13.3493 6.84057 13.4505C8.47051 13.5516 10.0812 13.0532 11.3692 12.0492L15.8008 16.4809C15.958 16.6327 16.1685 16.7167 16.387 16.7148C16.6055 16.7129 16.8145 16.6252 16.969 16.4707C17.1235 16.3162 17.2112 16.1072 17.2131 15.8887C17.2149 15.6702 17.131 15.4597 16.9792 15.3025L12.5475 10.8709C13.5961 9.52516 14.0918 7.83015 13.9336 6.1315C13.7755 4.43285 12.9753 2.85852 11.6962 1.72958C10.4172 0.600637 8.75568 0.0021199 7.05054 0.0560913C5.3454 0.110063 3.72506 0.812457 2.51999 2.02003C1.89732 2.64238 1.40337 3.38132 1.06637 4.19462C0.729365 5.00793 0.555908 5.87966 0.555908 6.76003C0.555908 7.64039 0.729365 8.51213 1.06637 9.32543C1.40337 10.1387 1.89732 10.8777 2.51999 11.5ZM3.69832 3.20003C4.52213 2.37623 5.60609 1.86356 6.76551 1.74936C7.92493 1.63515 9.08808 1.92648 10.0568 2.57371C11.0255 3.22094 11.7398 4.18402 12.0781 5.29887C12.4163 6.41372 12.3576 7.61136 11.9118 8.68774C11.466 9.76412 10.6608 10.6526 9.63343 11.2019C8.60601 11.7512 7.41993 11.9273 6.27726 11.7001C5.13458 11.473 4.10602 10.8566 3.36682 9.95614C2.62761 9.05566 2.2235 7.92672 2.22332 6.76169C2.22103 6.09967 2.35024 5.44379 2.60344 4.83209C2.85665 4.2204 3.2288 3.66508 3.69832 3.19836V3.20003Z" fill="black"/>
</svg>
