<svg width="30" height="22" viewBox="0 0 30 22" fill="none" xmlns="http://www.w3.org/2000/svg">
<path d="M29.6319 7.95331C29.694 6.0446 29.2749 4.15094 28.4133 2.44664C27.8378 1.73571 27.0265 1.25462 26.1266 1.09064C22.4304 0.76974 18.7202 0.639345 15.0106 0.699976C11.3015 0.639056 7.59165 0.769451 3.89594 1.09064C3.16261 1.22664 2.48528 1.57064 1.94128 2.07864C0.747943 3.18531 0.661276 5.07998 0.481276 6.67731C0.284562 9.55484 0.284562 12.4424 0.481276 15.32C0.514609 16.2213 0.649276 17.116 0.883942 17.9866C1.04394 18.6613 1.36661 19.2853 1.82661 19.804C2.37061 20.34 3.06394 20.7 3.81461 20.8373C6.68928 21.1933 9.58661 21.34 12.4813 21.2746C17.1413 21.3493 21.2453 21.2706 26.0799 20.9066C26.8533 20.7733 27.5666 20.4093 28.1253 19.8613C28.4893 19.4986 28.7653 19.0586 28.9306 18.5733C29.4133 17.1133 29.6506 15.5826 29.6319 14.0453C29.6773 13.252 29.6773 8.74664 29.6319 7.95198V7.95331ZM19.8853 10.7L19.8799 10.6973C18.7733 11.3106 17.4959 11.9586 16.1493 12.6426C14.7946 13.3293 13.3733 14.0506 11.9879 14.8026V6.54931C13.3039 7.23998 14.6053 7.91864 15.9146 8.60264C17.2213 9.28798 18.5373 9.98131 19.8799 10.6973L19.8959 10.688L19.8853 10.7Z" fill="#FF0000"/>
</svg>
